<svg width="307" height="47" viewBox="0 0 307 47" fill="none" xmlns="http://www.w3.org/2000/svg">
<path d="M71.92 37.4C68.24 37.4 65.3867 36.4533 63.36 34.56C61.36 32.6667 60.2933 30 60.16 26.56C60.1333 25.84 60.12 24.6667 60.12 23.04C60.12 21.3867 60.1333 20.1867 60.16 19.44C60.2933 16.0267 61.3733 13.3733 63.4 11.48C65.4533 9.56 68.2933 8.6 71.92 8.6C74.2933 8.6 76.36 9.01333 78.12 9.84C79.88 10.64 81.24 11.7467 82.2 13.16C83.16 14.5467 83.6667 16.12 83.72 17.88V17.96C83.72 18.1733 83.6267 18.36 83.44 18.52C83.28 18.6533 83.0933 18.72 82.88 18.72H79.08C78.76 18.72 78.52 18.6533 78.36 18.52C78.2 18.3867 78.0667 18.1333 77.96 17.76C77.5333 16.08 76.8267 14.9067 75.84 14.24C74.8533 13.5467 73.5333 13.2 71.88 13.2C68.04 13.2 66.04 15.3467 65.88 19.64C65.8533 20.36 65.84 21.4667 65.84 22.96C65.84 24.4533 65.8533 25.5867 65.88 26.36C66.04 30.6533 68.04 32.8 71.88 32.8C73.5333 32.8 74.8533 32.4533 75.84 31.76C76.8533 31.0667 77.56 29.8933 77.96 28.24C78.04 27.8667 78.16 27.6133 78.32 27.48C78.5067 27.3467 78.76 27.28 79.08 27.28H82.88C83.12 27.28 83.32 27.36 83.48 27.52C83.6667 27.68 83.7467 27.88 83.72 28.12C83.6667 29.88 83.16 31.4667 82.2 32.88C81.24 34.2667 79.88 35.3733 78.12 36.2C76.36 37 74.2933 37.4 71.92 37.4ZM100.424 37.4C96.7971 37.4 93.9704 36.48 91.9438 34.64C89.9171 32.8 88.8504 30.0667 88.7438 26.44C88.7171 25.6667 88.7038 24.5333 88.7038 23.04C88.7038 21.52 88.7171 20.3733 88.7438 19.6C88.8504 16.0533 89.9438 13.3333 92.0238 11.44C94.1038 9.54666 96.9038 8.6 100.424 8.6C103.944 8.6 106.744 9.54666 108.824 11.44C110.93 13.3333 112.037 16.0533 112.144 19.6C112.197 21.1467 112.224 22.2933 112.224 23.04C112.224 23.76 112.197 24.8933 112.144 26.44C112.01 30.0667 110.93 32.8 108.904 34.64C106.877 36.48 104.05 37.4 100.424 37.4ZM100.424 32.8C102.21 32.8 103.637 32.2667 104.704 31.2C105.77 30.1067 106.344 28.4533 106.424 26.24C106.477 24.64 106.504 23.56 106.504 23C106.504 22.3867 106.477 21.3067 106.424 19.76C106.344 17.5467 105.77 15.9067 104.704 14.84C103.637 13.7467 102.21 13.2 100.424 13.2C98.6638 13.2 97.2504 13.7467 96.1838 14.84C95.1171 15.9067 94.5438 17.5467 94.4638 19.76C94.4371 20.5333 94.4238 21.6133 94.4238 23C94.4238 24.36 94.4371 25.44 94.4638 26.24C94.5438 28.4533 95.1038 30.1067 96.1438 31.2C97.2104 32.2667 98.6371 32.8 100.424 32.8ZM119.636 37C119.37 37 119.143 36.9067 118.956 36.72C118.77 36.5333 118.676 36.3067 118.676 36.04V10C118.676 9.70667 118.756 9.46667 118.916 9.28C119.103 9.09333 119.343 9 119.636 9H122.716C123.036 9 123.276 9.06666 123.436 9.2C123.596 9.30666 123.743 9.45333 123.876 9.64L135.396 27.56V10C135.396 9.70667 135.476 9.46667 135.636 9.28C135.823 9.09333 136.063 9 136.356 9H139.716C140.01 9 140.25 9.09333 140.436 9.28C140.623 9.46667 140.716 9.70667 140.716 10V36C140.716 36.2933 140.623 36.5333 140.436 36.72C140.25 36.9067 140.023 37 139.756 37H136.636C136.183 37 135.796 36.7867 135.476 36.36L123.996 18.84V36.04C123.996 36.3333 123.903 36.5733 123.716 36.76C123.53 36.92 123.29 37 122.996 37H119.636ZM157.877 37.4C155.504 37.4 153.464 37.04 151.757 36.32C150.051 35.6 148.757 34.6533 147.877 33.48C146.997 32.3067 146.531 31.04 146.477 29.68C146.477 29.44 146.557 29.24 146.717 29.08C146.877 28.92 147.077 28.84 147.317 28.84H150.877C151.197 28.84 151.437 28.9067 151.597 29.04C151.784 29.1467 151.957 29.3333 152.117 29.6C152.384 30.5067 152.997 31.2667 153.957 31.88C154.917 32.4933 156.224 32.8 157.877 32.8C159.771 32.8 161.197 32.4933 162.157 31.88C163.117 31.24 163.597 30.36 163.597 29.24C163.597 28.4933 163.344 27.88 162.837 27.4C162.357 26.92 161.624 26.5067 160.637 26.16C159.677 25.8133 158.237 25.3867 156.317 24.88C153.171 24.1333 150.864 23.1467 149.397 21.92C147.957 20.6667 147.237 18.8933 147.237 16.6C147.237 15.0533 147.651 13.68 148.477 12.48C149.331 11.28 150.544 10.3333 152.117 9.64C153.717 8.94667 155.571 8.6 157.677 8.6C159.864 8.6 161.757 8.98666 163.357 9.76C164.957 10.5333 166.171 11.5067 166.997 12.68C167.851 13.8267 168.304 14.9733 168.357 16.12C168.357 16.36 168.277 16.56 168.117 16.72C167.957 16.88 167.758 16.96 167.517 16.96H163.797C163.237 16.96 162.851 16.7067 162.637 16.2C162.477 15.3467 161.944 14.64 161.037 14.08C160.131 13.4933 159.011 13.2 157.677 13.2C156.184 13.2 155.011 13.48 154.157 14.04C153.304 14.6 152.877 15.4133 152.877 16.48C152.877 17.2267 153.091 17.84 153.517 18.32C153.944 18.8 154.611 19.2267 155.517 19.6C156.451 19.9733 157.784 20.3867 159.517 20.84C161.864 21.3733 163.731 21.9733 165.117 22.64C166.531 23.3067 167.571 24.1467 168.238 25.16C168.904 26.1733 169.237 27.4667 169.237 29.04C169.237 30.7467 168.757 32.24 167.797 33.52C166.864 34.7733 165.531 35.7333 163.797 36.4C162.091 37.0667 160.117 37.4 157.877 37.4ZM181.829 37C181.562 37 181.336 36.9067 181.149 36.72C180.962 36.5333 180.869 36.3067 180.869 36.04V13.92H173.469C173.202 13.92 172.976 13.8267 172.789 13.64C172.602 13.4533 172.509 13.2267 172.509 12.96V10C172.509 9.70667 172.589 9.46667 172.749 9.28C172.936 9.09333 173.176 9 173.469 9H193.869C194.162 9 194.402 9.09333 194.589 9.28C194.776 9.46667 194.869 9.70667 194.869 10V12.96C194.869 13.2267 194.776 13.4533 194.589 13.64C194.402 13.8267 194.162 13.92 193.869 13.92H186.509V36.04C186.509 36.3067 186.416 36.5333 186.229 36.72C186.042 36.9067 185.802 37 185.509 37H181.829ZM201.088 37C200.821 37 200.594 36.9067 200.408 36.72C200.221 36.5333 200.128 36.3067 200.128 36.04V10C200.128 9.70667 200.208 9.46667 200.368 9.28C200.554 9.09333 200.794 9 201.088 9H211.448C214.701 9 217.248 9.76 219.088 11.28C220.954 12.8 221.888 14.96 221.888 17.76C221.888 19.7067 221.408 21.3467 220.448 22.68C219.514 23.9867 218.208 24.9333 216.528 25.52L222.368 35.72C222.448 35.88 222.488 36.0267 222.488 36.16C222.488 36.4 222.394 36.6 222.208 36.76C222.048 36.92 221.861 37 221.648 37H218.008C217.581 37 217.248 36.9067 217.008 36.72C216.794 36.5333 216.594 36.2667 216.408 35.92L211.248 26.44H205.688V36.04C205.688 36.3067 205.594 36.5333 205.408 36.72C205.248 36.9067 205.021 37 204.728 37H201.088ZM211.328 21.92C212.928 21.92 214.128 21.56 214.928 20.84C215.754 20.12 216.168 19.08 216.168 17.72C216.168 16.36 215.754 15.3067 214.928 14.56C214.128 13.8133 212.928 13.44 211.328 13.44H205.688V21.92H211.328ZM239.402 37.4C235.802 37.4 233.002 36.48 231.002 34.64C229.002 32.8 228.002 30.0133 228.002 26.28V10C228.002 9.70667 228.082 9.46667 228.242 9.28C228.429 9.09333 228.669 9 228.962 9H232.602C232.895 9 233.122 9.09333 233.282 9.28C233.469 9.46667 233.562 9.70667 233.562 10V26.28C233.562 28.4133 234.069 30.0267 235.082 31.12C236.095 32.1867 237.535 32.72 239.402 32.72C241.269 32.72 242.695 32.1867 243.682 31.12C244.695 30.0267 245.202 28.4133 245.202 26.28V10C245.202 9.70667 245.295 9.46667 245.482 9.28C245.669 9.09333 245.909 9 246.202 9H249.802C250.095 9 250.322 9.09333 250.482 9.28C250.669 9.46667 250.762 9.70667 250.762 10V26.28C250.762 30.0133 249.762 32.8 247.762 34.64C245.789 36.48 243.002 37.4 239.402 37.4ZM268.757 37.4C265.077 37.4 262.224 36.4533 260.197 34.56C258.197 32.6667 257.131 30 256.997 26.56C256.971 25.84 256.957 24.6667 256.957 23.04C256.957 21.3867 256.971 20.1867 256.997 19.44C257.131 16.0267 258.211 13.3733 260.237 11.48C262.291 9.56 265.131 8.6 268.757 8.6C271.131 8.6 273.197 9.01333 274.957 9.84C276.717 10.64 278.077 11.7467 279.037 13.16C279.997 14.5467 280.504 16.12 280.557 17.88V17.96C280.557 18.1733 280.464 18.36 280.277 18.52C280.117 18.6533 279.931 18.72 279.717 18.72H275.917C275.597 18.72 275.357 18.6533 275.197 18.52C275.037 18.3867 274.904 18.1333 274.797 17.76C274.371 16.08 273.664 14.9067 272.677 14.24C271.691 13.5467 270.371 13.2 268.717 13.2C264.877 13.2 262.877 15.3467 262.717 19.64C262.691 20.36 262.677 21.4667 262.677 22.96C262.677 24.4533 262.691 25.5867 262.717 26.36C262.877 30.6533 264.877 32.8 268.717 32.8C270.371 32.8 271.691 32.4533 272.677 31.76C273.691 31.0667 274.397 29.8933 274.797 28.24C274.877 27.8667 274.997 27.6133 275.157 27.48C275.344 27.3467 275.597 27.28 275.917 27.28H279.717C279.957 27.28 280.157 27.36 280.317 27.52C280.504 27.68 280.584 27.88 280.557 28.12C280.504 29.88 279.997 31.4667 279.037 32.88C278.077 34.2667 276.717 35.3733 274.957 36.2C273.197 37 271.131 37.4 268.757 37.4ZM293.621 37C293.355 37 293.128 36.9067 292.941 36.72C292.755 36.5333 292.661 36.3067 292.661 36.04V13.92H285.261C284.995 13.92 284.768 13.8267 284.581 13.64C284.395 13.4533 284.301 13.2267 284.301 12.96V10C284.301 9.70667 284.381 9.46667 284.541 9.28C284.728 9.09333 284.968 9 285.261 9H305.661C305.955 9 306.195 9.09333 306.381 9.28C306.568 9.46667 306.661 9.70667 306.661 10V12.96C306.661 13.2267 306.568 13.4533 306.381 13.64C306.195 13.8267 305.955 13.92 305.661 13.92H298.301V36.04C298.301 36.3067 298.208 36.5333 298.021 36.72C297.835 36.9067 297.595 37 297.301 37H293.621Z" fill="white"/>
<path fill-rule="evenodd" clip-rule="evenodd" d="M37.9876 35.3484C40.5112 31.8827 42 27.6152 42 23C42 18.2197 40.4028 13.8125 37.7129 10.2829L25.3175 22.6783L37.9876 35.3484ZM33.653 39.7616L20.9436 27.0522L8.28286 39.7129C11.8125 42.4028 16.2197 44 21 44C25.7514 44 30.1342 42.422 33.653 39.7616ZM3.96494 35.283C1.47017 31.8291 0 27.5862 0 23C0 18.2486 1.57796 13.8658 4.23841 10.347L16.5697 22.6783L3.96494 35.283ZM8.65162 6.01237L20.9436 18.3043L33.283 5.96494C29.8291 3.47017 25.5862 2 21 2C16.3848 2 12.1173 3.48881 8.65162 6.01237Z" fill="white"/>
</svg>
