<svg width="249" height="47" viewBox="0 0 249 47" fill="none" xmlns="http://www.w3.org/2000/svg">
<path d="M56.08 37C55.8133 37 55.5867 36.9067 55.4 36.72C55.2133 36.5333 55.12 36.3067 55.12 36.04V10C55.12 9.70667 55.2 9.46667 55.36 9.28C55.5467 9.09333 55.7867 9 56.08 9H66.8C70 9 72.52 9.76 74.36 11.28C76.2 12.7733 77.12 14.9733 77.12 17.88C77.12 20.7867 76.2 22.9867 74.36 24.48C72.5467 25.9467 70.0267 26.68 66.8 26.68H60.84V36.04C60.84 36.3067 60.7467 36.5333 60.56 36.72C60.4 36.9067 60.1733 37 59.88 37H56.08ZM66.6 22.24C68.1467 22.24 69.3333 21.88 70.16 21.16C70.9867 20.4133 71.4 19.32 71.4 17.88C71.4 16.4933 71 15.4133 70.2 14.64C69.4 13.84 68.2 13.44 66.6 13.44H60.76V22.24H66.6ZM83.6472 37C83.3805 37 83.1539 36.9067 82.9672 36.72C82.7805 36.5333 82.6872 36.3067 82.6872 36.04V10C82.6872 9.70667 82.7672 9.46667 82.9272 9.28C83.1139 9.09333 83.3539 9 83.6472 9H94.0072C97.2605 9 99.8072 9.76 101.647 11.28C103.514 12.8 104.447 14.96 104.447 17.76C104.447 19.7067 103.967 21.3467 103.007 22.68C102.074 23.9867 100.767 24.9333 99.0872 25.52L104.927 35.72C105.007 35.88 105.047 36.0267 105.047 36.16C105.047 36.4 104.954 36.6 104.767 36.76C104.607 36.92 104.421 37 104.207 37H100.567C100.141 37 99.8072 36.9067 99.5672 36.72C99.3539 36.5333 99.1539 36.2667 98.9672 35.92L93.8072 26.44H88.2472V36.04C88.2472 36.3067 88.1539 36.5333 87.9672 36.72C87.8072 36.9067 87.5805 37 87.2872 37H83.6472ZM93.8872 21.92C95.4872 21.92 96.6872 21.56 97.4872 20.84C98.3139 20.12 98.7272 19.08 98.7272 17.72C98.7272 16.36 98.3139 15.3067 97.4872 14.56C96.6872 13.8133 95.4872 13.44 93.8872 13.44H88.2472V21.92H93.8872ZM121.483 37.4C117.856 37.4 115.03 36.48 113.003 34.64C110.976 32.8 109.91 30.0667 109.803 26.44C109.776 25.6667 109.763 24.5333 109.763 23.04C109.763 21.52 109.776 20.3733 109.803 19.6C109.91 16.0533 111.003 13.3333 113.083 11.44C115.163 9.54666 117.963 8.6 121.483 8.6C125.003 8.6 127.803 9.54666 129.883 11.44C131.99 13.3333 133.096 16.0533 133.203 19.6C133.256 21.1467 133.283 22.2933 133.283 23.04C133.283 23.76 133.256 24.8933 133.203 26.44C133.07 30.0667 131.99 32.8 129.963 34.64C127.936 36.48 125.11 37.4 121.483 37.4ZM121.483 32.8C123.27 32.8 124.696 32.2667 125.763 31.2C126.83 30.1067 127.403 28.4533 127.483 26.24C127.536 24.64 127.563 23.56 127.563 23C127.563 22.3867 127.536 21.3067 127.483 19.76C127.403 17.5467 126.83 15.9067 125.763 14.84C124.696 13.7467 123.27 13.2 121.483 13.2C119.723 13.2 118.31 13.7467 117.243 14.84C116.176 15.9067 115.603 17.5467 115.523 19.76C115.496 20.5333 115.483 21.6133 115.483 23C115.483 24.36 115.496 25.44 115.523 26.24C115.603 28.4533 116.163 30.1067 117.203 31.2C118.27 32.2667 119.696 32.8 121.483 32.8ZM140.696 37C140.429 37 140.202 36.9067 140.016 36.72C139.829 36.5333 139.736 36.3067 139.736 36.04V10C139.736 9.70667 139.816 9.46667 139.976 9.28C140.162 9.09333 140.402 9 140.696 9H150.456C158.296 9 162.296 12.6267 162.456 19.88C162.509 21.4267 162.536 22.4667 162.536 23C162.536 23.5067 162.509 24.5333 162.456 26.08C162.349 29.8133 161.349 32.5733 159.456 34.36C157.562 36.12 154.629 37 150.656 37H140.696ZM150.456 32.4C152.696 32.4 154.309 31.9067 155.296 30.92C156.282 29.9067 156.802 28.2533 156.856 25.96C156.909 24.36 156.936 23.36 156.936 22.96C156.936 22.5333 156.909 21.5467 156.856 20C156.802 17.8133 156.242 16.2 155.176 15.16C154.136 14.12 152.496 13.6 150.256 13.6H145.296V32.4H150.456ZM180.221 37.4C176.621 37.4 173.821 36.48 171.821 34.64C169.821 32.8 168.821 30.0133 168.821 26.28V10C168.821 9.70667 168.901 9.46667 169.061 9.28C169.247 9.09333 169.487 9 169.781 9H173.421C173.714 9 173.941 9.09333 174.101 9.28C174.287 9.46667 174.381 9.70667 174.381 10V26.28C174.381 28.4133 174.887 30.0267 175.901 31.12C176.914 32.1867 178.354 32.72 180.221 32.72C182.087 32.72 183.514 32.1867 184.501 31.12C185.514 30.0267 186.021 28.4133 186.021 26.28V10C186.021 9.70667 186.114 9.46667 186.301 9.28C186.487 9.09333 186.727 9 187.021 9H190.621C190.914 9 191.141 9.09333 191.301 9.28C191.487 9.46667 191.581 9.70667 191.581 10V26.28C191.581 30.0133 190.581 32.8 188.581 34.64C186.607 36.48 183.821 37.4 180.221 37.4ZM209.576 37.4C205.896 37.4 203.043 36.4533 201.016 34.56C199.016 32.6667 197.95 30 197.816 26.56C197.79 25.84 197.776 24.6667 197.776 23.04C197.776 21.3867 197.79 20.1867 197.816 19.44C197.95 16.0267 199.03 13.3733 201.056 11.48C203.11 9.56 205.95 8.6 209.576 8.6C211.95 8.6 214.016 9.01333 215.776 9.84C217.536 10.64 218.896 11.7467 219.856 13.16C220.816 14.5467 221.323 16.12 221.376 17.88V17.96C221.376 18.1733 221.283 18.36 221.096 18.52C220.936 18.6533 220.75 18.72 220.536 18.72H216.736C216.416 18.72 216.176 18.6533 216.016 18.52C215.856 18.3867 215.723 18.1333 215.616 17.76C215.19 16.08 214.483 14.9067 213.496 14.24C212.51 13.5467 211.19 13.2 209.536 13.2C205.696 13.2 203.696 15.3467 203.536 19.64C203.51 20.36 203.496 21.4667 203.496 22.96C203.496 24.4533 203.51 25.5867 203.536 26.36C203.696 30.6533 205.696 32.8 209.536 32.8C211.19 32.8 212.51 32.4533 213.496 31.76C214.51 31.0667 215.216 29.8933 215.616 28.24C215.696 27.8667 215.816 27.6133 215.976 27.48C216.163 27.3467 216.416 27.28 216.736 27.28H220.536C220.776 27.28 220.976 27.36 221.136 27.52C221.323 27.68 221.403 27.88 221.376 28.12C221.323 29.88 220.816 31.4667 219.856 32.88C218.896 34.2667 217.536 35.3733 215.776 36.2C214.016 37 211.95 37.4 209.576 37.4ZM234.44 37C234.173 37 233.947 36.9067 233.76 36.72C233.573 36.5333 233.48 36.3067 233.48 36.04V13.92H226.08C225.813 13.92 225.587 13.8267 225.4 13.64C225.213 13.4533 225.12 13.2267 225.12 12.96V10C225.12 9.70667 225.2 9.46667 225.36 9.28C225.547 9.09333 225.787 9 226.08 9H246.48C246.773 9 247.013 9.09333 247.2 9.28C247.387 9.46667 247.48 9.70667 247.48 10V12.96C247.48 13.2267 247.387 13.4533 247.2 13.64C247.013 13.8267 246.773 13.92 246.48 13.92H239.12V36.04C239.12 36.3067 239.027 36.5333 238.84 36.72C238.653 36.9067 238.413 37 238.12 37H234.44Z" fill="#3C3C3C"/>
<path fill-rule="evenodd" clip-rule="evenodd" d="M36.5396 37.1254C39.9321 33.3954 42 28.4392 42 23C42 17.6663 40.0115 12.797 36.7355 9.09297L22.6213 23.2071L36.5396 37.1254ZM35.1254 38.5396L21.2071 24.6213L7.09297 38.7355C10.797 42.0115 15.6663 44 21 44C26.4392 44 31.3954 41.9321 35.1254 38.5396ZM5.65913 37.3409C2.14882 33.5874 0 28.5446 0 23C0 17.5608 2.06789 12.6046 5.46039 8.87461L19.7929 23.2071L5.65913 37.3409ZM6.87461 7.46039L21.2071 21.7929L35.3409 7.65913C31.5874 4.14882 26.5446 2 21 2C15.5608 2 10.6046 4.06789 6.87461 7.46039Z" fill="#3C3C3C"/>
</svg>
