<svg width="42" height="42" viewBox="0 0 42 42" fill="none" xmlns="http://www.w3.org/2000/svg">
<path fill-rule="evenodd" clip-rule="evenodd" d="M36.5396 35.1254C39.9321 31.3954 42 26.4392 42 21C42 15.6663 40.0115 10.797 36.7355 7.09297L22.6213 21.2071L36.5396 35.1254ZM35.1254 36.5396L21.2071 22.6213L7.09297 36.7355C10.797 40.0115 15.6663 42 21 42C26.4392 42 31.3954 39.9321 35.1254 36.5396ZM5.65913 35.3409C2.14882 31.5874 0 26.5446 0 21C0 15.5608 2.06789 10.6046 5.46039 6.87461L19.7929 21.2071L5.65913 35.3409ZM6.87461 5.46039L21.2071 19.7929L35.3409 5.65913C31.5874 2.14882 26.5446 0 21 0C15.5608 0 10.6046 2.06789 6.87461 5.46039Z" fill="#3C3C3C"/>
</svg>
