<svg width="254" height="42" viewBox="0 0 254 42" fill="none" xmlns="http://www.w3.org/2000/svg">
<path d="M62.08 35C61.8133 35 61.5867 34.9066 61.4 34.72C61.2133 34.5333 61.12 34.3066 61.12 34.04V7.99998C61.12 7.70664 61.2 7.46664 61.36 7.27998C61.5467 7.09331 61.7867 6.99998 62.08 6.99998H72.8C76 6.99998 78.52 7.75998 80.36 9.27998C82.2 10.7733 83.12 12.9733 83.12 15.88C83.12 18.7866 82.2 20.9866 80.36 22.48C78.5467 23.9466 76.0267 24.68 72.8 24.68H66.84V34.04C66.84 34.3066 66.7467 34.5333 66.56 34.72C66.4 34.9066 66.1733 35 65.88 35H62.08ZM72.6 20.24C74.1467 20.24 75.3333 19.88 76.16 19.16C76.9867 18.4133 77.4 17.32 77.4 15.88C77.4 14.4933 77 13.4133 76.2 12.64C75.4 11.84 74.2 11.44 72.6 11.44H66.76V20.24H72.6Z" fill="white"/>
<path d="M89.6472 35C89.3805 35 89.1538 34.9066 88.9672 34.72C88.7805 34.5333 88.6872 34.3066 88.6872 34.04V7.99998C88.6872 7.70664 88.7672 7.46664 88.9272 7.27998C89.1138 7.09331 89.3538 6.99998 89.6472 6.99998H100.007C103.261 6.99998 105.807 7.75998 107.647 9.27998C109.514 10.8 110.447 12.96 110.447 15.76C110.447 17.7066 109.967 19.3466 109.007 20.68C108.074 21.9866 106.767 22.9333 105.087 23.52L110.927 33.72C111.007 33.88 111.047 34.0266 111.047 34.16C111.047 34.4 110.954 34.6 110.767 34.76C110.607 34.92 110.421 35 110.207 35H106.567C106.141 35 105.807 34.9066 105.567 34.72C105.354 34.5333 105.154 34.2666 104.967 33.92L99.8072 24.44H94.2472V34.04C94.2472 34.3066 94.1539 34.5333 93.9672 34.72C93.8072 34.9066 93.5805 35 93.2872 35H89.6472ZM99.8872 19.92C101.487 19.92 102.687 19.56 103.487 18.84C104.314 18.12 104.727 17.08 104.727 15.72C104.727 14.36 104.314 13.3066 103.487 12.56C102.687 11.8133 101.487 11.44 99.8872 11.44H94.2472V19.92H99.8872Z" fill="white"/>
<path d="M127.483 35.4C123.856 35.4 121.03 34.48 119.003 32.64C116.976 30.8 115.91 28.0666 115.803 24.44C115.776 23.6666 115.763 22.5333 115.763 21.04C115.763 19.52 115.776 18.3733 115.803 17.6C115.91 14.0533 117.003 11.3333 119.083 9.43997C121.163 7.54664 123.963 6.59998 127.483 6.59998C131.003 6.59998 133.803 7.54664 135.883 9.43997C137.99 11.3333 139.096 14.0533 139.203 17.6C139.256 19.1466 139.283 20.2933 139.283 21.04C139.283 21.76 139.256 22.8933 139.203 24.44C139.07 28.0666 137.99 30.8 135.963 32.64C133.936 34.48 131.11 35.4 127.483 35.4ZM127.483 30.8C129.27 30.8 130.696 30.2666 131.763 29.2C132.83 28.1066 133.403 26.4533 133.483 24.24C133.536 22.64 133.563 21.56 133.563 21C133.563 20.3866 133.536 19.3066 133.483 17.76C133.403 15.5466 132.83 13.9066 131.763 12.84C130.696 11.7466 129.27 11.2 127.483 11.2C125.723 11.2 124.31 11.7466 123.243 12.84C122.176 13.9066 121.603 15.5466 121.523 17.76C121.496 18.5333 121.483 19.6133 121.483 21C121.483 22.36 121.496 23.44 121.523 24.24C121.603 26.4533 122.163 28.1066 123.203 29.2C124.27 30.2666 125.696 30.8 127.483 30.8Z" fill="white"/>
<path d="M146.696 35C146.429 35 146.202 34.9066 146.016 34.72C145.829 34.5333 145.736 34.3066 145.736 34.04V7.99998C145.736 7.70664 145.816 7.46664 145.976 7.27998C146.162 7.09331 146.402 6.99998 146.696 6.99998H156.456C164.296 6.99998 168.296 10.6266 168.456 17.88C168.509 19.4266 168.536 20.4666 168.536 21C168.536 21.5066 168.509 22.5333 168.456 24.08C168.349 27.8133 167.349 30.5733 165.456 32.36C163.562 34.12 160.629 35 156.656 35H146.696ZM156.456 30.4C158.696 30.4 160.309 29.9066 161.296 28.92C162.282 27.9066 162.802 26.2533 162.856 23.96C162.909 22.36 162.936 21.36 162.936 20.96C162.936 20.5333 162.909 19.5466 162.856 18C162.802 15.8133 162.242 14.2 161.176 13.16C160.136 12.12 158.496 11.6 156.256 11.6H151.296V30.4H156.456Z" fill="white"/>
<path d="M186.221 35.4C182.621 35.4 179.821 34.48 177.821 32.64C175.821 30.8 174.821 28.0133 174.821 24.28V7.99998C174.821 7.70664 174.901 7.46664 175.061 7.27998C175.247 7.09331 175.487 6.99998 175.781 6.99998H179.421C179.714 6.99998 179.941 7.09331 180.101 7.27998C180.287 7.46664 180.381 7.70664 180.381 7.99998V24.28C180.381 26.4133 180.887 28.0266 181.901 29.12C182.914 30.1866 184.354 30.72 186.221 30.72C188.087 30.72 189.514 30.1866 190.501 29.12C191.514 28.0266 192.021 26.4133 192.021 24.28V7.99998C192.021 7.70664 192.114 7.46664 192.301 7.27998C192.487 7.09331 192.727 6.99998 193.021 6.99998H196.621C196.914 6.99998 197.141 7.09331 197.301 7.27998C197.487 7.46664 197.581 7.70664 197.581 7.99998V24.28C197.581 28.0133 196.581 30.8 194.581 32.64C192.607 34.48 189.821 35.4 186.221 35.4Z" fill="white"/>
<path d="M215.576 35.4C211.896 35.4 209.043 34.4533 207.016 32.56C205.016 30.6666 203.95 28 203.816 24.56C203.79 23.84 203.776 22.6666 203.776 21.04C203.776 19.3866 203.79 18.1866 203.816 17.44C203.95 14.0266 205.03 11.3733 207.056 9.47998C209.11 7.55998 211.95 6.59998 215.576 6.59998C217.95 6.59998 220.016 7.01331 221.776 7.83998C223.536 8.63998 224.896 9.74664 225.856 11.16C226.816 12.5466 227.323 14.12 227.376 15.88V15.96C227.376 16.1733 227.283 16.36 227.096 16.52C226.936 16.6533 226.75 16.72 226.536 16.72H222.736C222.416 16.72 222.176 16.6533 222.016 16.52C221.856 16.3866 221.723 16.1333 221.616 15.76C221.19 14.08 220.483 12.9066 219.496 12.24C218.51 11.5466 217.19 11.2 215.536 11.2C211.696 11.2 209.696 13.3466 209.536 17.64C209.51 18.36 209.496 19.4666 209.496 20.96C209.496 22.4533 209.51 23.5866 209.536 24.36C209.696 28.6533 211.696 30.8 215.536 30.8C217.19 30.8 218.51 30.4533 219.496 29.76C220.51 29.0666 221.216 27.8933 221.616 26.24C221.696 25.8666 221.816 25.6133 221.976 25.48C222.163 25.3466 222.416 25.28 222.736 25.28H226.536C226.776 25.28 226.976 25.36 227.136 25.52C227.323 25.68 227.403 25.88 227.376 26.12C227.323 27.88 226.816 29.4666 225.856 30.88C224.896 32.2666 223.536 33.3733 221.776 34.2C220.016 35 217.95 35.4 215.576 35.4Z" fill="white"/>
<path d="M240.44 35C240.173 35 239.947 34.9066 239.76 34.72C239.573 34.5333 239.48 34.3066 239.48 34.04V11.92H232.08C231.813 11.92 231.587 11.8266 231.4 11.64C231.213 11.4533 231.12 11.2266 231.12 10.96V7.99998C231.12 7.70664 231.2 7.46664 231.36 7.27998C231.547 7.09331 231.787 6.99998 232.08 6.99998H252.48C252.773 6.99998 253.013 7.09331 253.2 7.27998C253.387 7.46664 253.48 7.70664 253.48 7.99998V10.96C253.48 11.2266 253.387 11.4533 253.2 11.64C253.013 11.8266 252.773 11.92 252.48 11.92H245.12V34.04C245.12 34.3066 245.027 34.5333 244.84 34.72C244.653 34.9066 244.413 35 244.12 35H240.44Z" fill="white"/>
<path fill-rule="evenodd" clip-rule="evenodd" d="M37.9876 33.3484C40.5112 29.8827 42 25.6152 42 21C42 16.2197 40.4028 11.8125 37.7129 8.28286L25.3175 20.6783L37.9876 33.3484ZM33.653 37.7616L20.9436 25.0522L8.28286 37.7129C11.8125 40.4028 16.2197 42 21 42C25.7514 42 30.1342 40.422 33.653 37.7616ZM3.96494 33.283C1.47017 29.8291 0 25.5862 0 21C0 16.2486 1.57796 11.8658 4.23841 8.347L16.5697 20.6783L3.96494 33.283ZM8.65162 4.01237L20.9436 16.3043L33.283 3.96494C29.8291 1.47017 25.5862 0 21 0C16.3848 0 12.1173 1.48881 8.65162 4.01237Z" fill="white"/>
</svg>
