<svg width="255" height="47" viewBox="0 0 255 47" fill="none" xmlns="http://www.w3.org/2000/svg">
<path d="M62.08 37C61.8133 37 61.5867 36.9067 61.4 36.72C61.2133 36.5333 61.12 36.3067 61.12 36.04V10C61.12 9.70667 61.2 9.46667 61.36 9.28C61.5467 9.09333 61.7867 9 62.08 9H72.8C76 9 78.52 9.76 80.36 11.28C82.2 12.7733 83.12 14.9733 83.12 17.88C83.12 20.7867 82.2 22.9867 80.36 24.48C78.5467 25.9467 76.0267 26.68 72.8 26.68H66.84V36.04C66.84 36.3067 66.7467 36.5333 66.56 36.72C66.4 36.9067 66.1733 37 65.88 37H62.08ZM72.6 22.24C74.1467 22.24 75.3333 21.88 76.16 21.16C76.9867 20.4133 77.4 19.32 77.4 17.88C77.4 16.4933 77 15.4133 76.2 14.64C75.4 13.84 74.2 13.44 72.6 13.44H66.76V22.24H72.6ZM89.6472 37C89.3805 37 89.1539 36.9067 88.9672 36.72C88.7805 36.5333 88.6872 36.3067 88.6872 36.04V10C88.6872 9.70667 88.7672 9.46667 88.9272 9.28C89.1139 9.09333 89.3539 9 89.6472 9H100.007C103.261 9 105.807 9.76 107.647 11.28C109.514 12.8 110.447 14.96 110.447 17.76C110.447 19.7067 109.967 21.3467 109.007 22.68C108.074 23.9867 106.767 24.9333 105.087 25.52L110.927 35.72C111.007 35.88 111.047 36.0267 111.047 36.16C111.047 36.4 110.954 36.6 110.767 36.76C110.607 36.92 110.421 37 110.207 37H106.567C106.141 37 105.807 36.9067 105.567 36.72C105.354 36.5333 105.154 36.2667 104.967 35.92L99.8072 26.44H94.2472V36.04C94.2472 36.3067 94.1539 36.5333 93.9672 36.72C93.8072 36.9067 93.5805 37 93.2872 37H89.6472ZM99.8872 21.92C101.487 21.92 102.687 21.56 103.487 20.84C104.314 20.12 104.727 19.08 104.727 17.72C104.727 16.36 104.314 15.3067 103.487 14.56C102.687 13.8133 101.487 13.44 99.8872 13.44H94.2472V21.92H99.8872ZM127.483 37.4C123.856 37.4 121.03 36.48 119.003 34.64C116.976 32.8 115.91 30.0667 115.803 26.44C115.776 25.6667 115.763 24.5333 115.763 23.04C115.763 21.52 115.776 20.3733 115.803 19.6C115.91 16.0533 117.003 13.3333 119.083 11.44C121.163 9.54666 123.963 8.6 127.483 8.6C131.003 8.6 133.803 9.54666 135.883 11.44C137.99 13.3333 139.096 16.0533 139.203 19.6C139.256 21.1467 139.283 22.2933 139.283 23.04C139.283 23.76 139.256 24.8933 139.203 26.44C139.07 30.0667 137.99 32.8 135.963 34.64C133.936 36.48 131.11 37.4 127.483 37.4ZM127.483 32.8C129.27 32.8 130.696 32.2667 131.763 31.2C132.83 30.1067 133.403 28.4533 133.483 26.24C133.536 24.64 133.563 23.56 133.563 23C133.563 22.3867 133.536 21.3067 133.483 19.76C133.403 17.5467 132.83 15.9067 131.763 14.84C130.696 13.7467 129.27 13.2 127.483 13.2C125.723 13.2 124.31 13.7467 123.243 14.84C122.176 15.9067 121.603 17.5467 121.523 19.76C121.496 20.5333 121.483 21.6133 121.483 23C121.483 24.36 121.496 25.44 121.523 26.24C121.603 28.4533 122.163 30.1067 123.203 31.2C124.27 32.2667 125.696 32.8 127.483 32.8ZM146.696 37C146.429 37 146.202 36.9067 146.016 36.72C145.829 36.5333 145.736 36.3067 145.736 36.04V10C145.736 9.70667 145.816 9.46667 145.976 9.28C146.162 9.09333 146.402 9 146.696 9H156.456C164.296 9 168.296 12.6267 168.456 19.88C168.509 21.4267 168.536 22.4667 168.536 23C168.536 23.5067 168.509 24.5333 168.456 26.08C168.349 29.8133 167.349 32.5733 165.456 34.36C163.562 36.12 160.629 37 156.656 37H146.696ZM156.456 32.4C158.696 32.4 160.309 31.9067 161.296 30.92C162.282 29.9067 162.802 28.2533 162.856 25.96C162.909 24.36 162.936 23.36 162.936 22.96C162.936 22.5333 162.909 21.5467 162.856 20C162.802 17.8133 162.242 16.2 161.176 15.16C160.136 14.12 158.496 13.6 156.256 13.6H151.296V32.4H156.456ZM186.221 37.4C182.621 37.4 179.821 36.48 177.821 34.64C175.821 32.8 174.821 30.0133 174.821 26.28V10C174.821 9.70667 174.901 9.46667 175.061 9.28C175.247 9.09333 175.487 9 175.781 9H179.421C179.714 9 179.941 9.09333 180.101 9.28C180.287 9.46667 180.381 9.70667 180.381 10V26.28C180.381 28.4133 180.887 30.0267 181.901 31.12C182.914 32.1867 184.354 32.72 186.221 32.72C188.087 32.72 189.514 32.1867 190.501 31.12C191.514 30.0267 192.021 28.4133 192.021 26.28V10C192.021 9.70667 192.114 9.46667 192.301 9.28C192.487 9.09333 192.727 9 193.021 9H196.621C196.914 9 197.141 9.09333 197.301 9.28C197.487 9.46667 197.581 9.70667 197.581 10V26.28C197.581 30.0133 196.581 32.8 194.581 34.64C192.607 36.48 189.821 37.4 186.221 37.4ZM215.576 37.4C211.896 37.4 209.043 36.4533 207.016 34.56C205.016 32.6667 203.95 30 203.816 26.56C203.79 25.84 203.776 24.6667 203.776 23.04C203.776 21.3867 203.79 20.1867 203.816 19.44C203.95 16.0267 205.03 13.3733 207.056 11.48C209.11 9.56 211.95 8.6 215.576 8.6C217.95 8.6 220.016 9.01333 221.776 9.84C223.536 10.64 224.896 11.7467 225.856 13.16C226.816 14.5467 227.323 16.12 227.376 17.88V17.96C227.376 18.1733 227.283 18.36 227.096 18.52C226.936 18.6533 226.75 18.72 226.536 18.72H222.736C222.416 18.72 222.176 18.6533 222.016 18.52C221.856 18.3867 221.723 18.1333 221.616 17.76C221.19 16.08 220.483 14.9067 219.496 14.24C218.51 13.5467 217.19 13.2 215.536 13.2C211.696 13.2 209.696 15.3467 209.536 19.64C209.51 20.36 209.496 21.4667 209.496 22.96C209.496 24.4533 209.51 25.5867 209.536 26.36C209.696 30.6533 211.696 32.8 215.536 32.8C217.19 32.8 218.51 32.4533 219.496 31.76C220.51 31.0667 221.216 29.8933 221.616 28.24C221.696 27.8667 221.816 27.6133 221.976 27.48C222.163 27.3467 222.416 27.28 222.736 27.28H226.536C226.776 27.28 226.976 27.36 227.136 27.52C227.323 27.68 227.403 27.88 227.376 28.12C227.323 29.88 226.816 31.4667 225.856 32.88C224.896 34.2667 223.536 35.3733 221.776 36.2C220.016 37 217.95 37.4 215.576 37.4ZM240.44 37C240.173 37 239.947 36.9067 239.76 36.72C239.573 36.5333 239.48 36.3067 239.48 36.04V13.92H232.08C231.813 13.92 231.587 13.8267 231.4 13.64C231.213 13.4533 231.12 13.2267 231.12 12.96V10C231.12 9.70667 231.2 9.46667 231.36 9.28C231.547 9.09333 231.787 9 232.08 9H252.48C252.773 9 253.013 9.09333 253.2 9.28C253.387 9.46667 253.48 9.70667 253.48 10V12.96C253.48 13.2267 253.387 13.4533 253.2 13.64C253.013 13.8267 252.773 13.92 252.48 13.92H245.12V36.04C245.12 36.3067 245.027 36.5333 244.84 36.72C244.653 36.9067 244.413 37 244.12 37H240.44Z" fill="white"/>
<path fill-rule="evenodd" clip-rule="evenodd" d="M37.9876 35.3484C40.5112 31.8827 42 27.6152 42 23C42 18.2197 40.4028 13.8125 37.7129 10.2829L25.3175 22.6783L37.9876 35.3484ZM33.653 39.7616L20.9436 27.0522L8.28286 39.7129C11.8125 42.4028 16.2197 44 21 44C25.7514 44 30.1342 42.422 33.653 39.7616ZM3.96494 35.283C1.47017 31.8291 0 27.5862 0 23C0 18.2486 1.57796 13.8658 4.23841 10.347L16.5697 22.6783L3.96494 35.283ZM8.65162 6.01237L20.9436 18.3043L33.283 5.96494C29.8291 3.47017 25.5862 2 21 2C16.3848 2 12.1173 3.48881 8.65162 6.01237Z" fill="white"/>
</svg>
